<?xml version="1.0" encoding="UTF-8" standalone="no"?>
<svg
   xmlns:dc="http://purl.org/dc/elements/1.1/"
   xmlns:cc="http://creativecommons.org/ns#"
   xmlns:rdf="http://www.w3.org/1999/02/22-rdf-syntax-ns#"
   xmlns:svg="http://www.w3.org/2000/svg"
   xmlns="http://www.w3.org/2000/svg"
   xmlns:sodipodi="http://sodipodi.sourceforge.net/DTD/sodipodi-0.dtd"
   xmlns:inkscape="http://www.inkscape.org/namespaces/inkscape"
   width="67.75473mm"
   height="61.399464mm"
   viewBox="0 0 67.75473 61.399464"
   version="1.1"
   id="svg8"
   inkscape:version="1.0.2 (1.0.2+r75+1)"
   sodipodi:docname="favicon.svg">
  <defs
     id="defs2">
    <filter
       inkscape:collect="always"
       style="color-interpolation-filters:sRGB"
       id="filter1438"
       x="-0.00013001865"
       width="1.00026"
       y="-0.00011141489"
       height="1.0002228">
      <feGaussianBlur
         inkscape:collect="always"
         stdDeviation="0.0019079182"
         id="feGaussianBlur1440" />
    </filter>
  </defs>
  <sodipodi:namedview
     id="base"
     pagecolor="#00000f"
     bordercolor="#666666"
     borderopacity="1.0"
     inkscape:pageopacity="0.65490196"
     inkscape:pageshadow="2"
     inkscape:zoom="1.979899"
     inkscape:cx="75.31531"
     inkscape:cy="96.804809"
     inkscape:document-units="mm"
     inkscape:current-layer="layer2"
     inkscape:document-rotation="0"
     showgrid="false"
     inkscape:window-width="1920"
     inkscape:window-height="1027"
     inkscape:window-x="0"
     inkscape:window-y="1109"
     inkscape:window-maximized="1"
     fit-margin-left="0"
     fit-margin-top="0"
     fit-margin-right="0"
     fit-margin-bottom="0"
     inkscape:pagecheckerboard="false" />
  <metadata
     id="metadata5">
    <rdf:RDF>
      <cc:Work
         rdf:about="">
        <dc:format>image/svg+xml</dc:format>
        <dc:type
           rdf:resource="http://purl.org/dc/dcmitype/StillImage" />
        <dc:title></dc:title>
      </cc:Work>
    </rdf:RDF>
  </metadata>
  <g
     inkscape:groupmode="layer"
     id="layer2"
     inkscape:label="Layer 2">
    <rect
       style="fill:#ffffff;fill-opacity:1;fill-rule:nonzero;stroke-width:0.264583"
       id="rect1480"
       width="66.959702"
       height="61.12064"
       x="0.85576302"
       y="0.1341147" />
    <path
       style="fill:#000000;fill-opacity:1;fill-rule:nonzero;stroke-width:0.505076"
       d="M 33.873537,102.25887 C 26.439922,94.119985 19.96754,87.041629 19.490466,86.529189 c -0.8315,-0.893137 -1.178464,-0.524032 -8.381697,8.916576 L 3.5944792,105.29405 3.4636442,79.622261 c -0.071959,-14.119483 -0.071959,-37.379186 0,-51.688232 L 3.5944792,1.9175813 17.989153,14.688524 l 14.394674,12.770943 45.204326,-0.201061 45.204327,-0.201061 5.05076,4.811524 5.05077,4.811524 -3.03046,0.02287 c -6.19549,0.04675 -80.629362,3.434341 -80.875792,3.680772 -0.140846,0.140846 5.314818,4.824546 12.123696,10.408223 l 12.379783,10.152136 h 28.201963 28.20197 l 2.88876,2.919224 2.88877,2.919225 -3.68591,3.099936 -3.68591,3.099936 -18.91665,0.557205 c -10.404142,0.30646 -20.823573,0.689232 -23.154277,0.850604 l -4.237651,0.293399 11.02576,11.03431 11.025768,11.034311 12.02597,-0.306304 12.02598,-0.306303 v 5.792723 5.79273 l -15.27856,1.11997 c -8.4032,0.61599 -15.64327,1.11356 -16.089035,1.10571 C 96.28242,109.94322 86.022745,99.538534 73.928911,86.829553 61.835072,74.120571 51.358224,63.181882 50.647023,62.521358 l -1.293093,-1.200955 -9.128889,8.759098 c -5.049975,4.845409 -9.020598,9.041295 -8.886526,9.390681 0.1333,0.347377 5.432683,7.060366 11.776408,14.917756 6.343724,7.857392 11.69525,14.548802 11.892275,14.869792 0.313036,0.50999 -5.997139,7.21033 -7.202973,7.64835 -0.228264,0.0829 -6.497073,-6.50833 -13.930688,-14.64721 z"
       id="path1482"
       transform="scale(0.26458333)" />
    <path
       style="fill:#000000;fill-opacity:1;fill-rule:nonzero;stroke-width:0.505076"
       d="m 158.36977,95.677807 c -1.51359,-1.741382 -3.02801,-3.521887 -3.36538,-3.956687 -0.515,-0.66373 1.24747,-3.45358 10.98774,-17.392639 L 177.59326,57.726376 V 46.982554 36.238732 L 159.78932,18.554903 141.98538,0.87107422 198.93273,0.85569576 255.88008,0.84031725 V 37.325432 73.810545 L 253.6809,71.544349 C 241.10241,58.582541 228.60596,45.271501 228.60596,44.834888 c 0,-0.298197 4.20117,-5.686221 9.33594,-11.973388 5.77876,-7.075681 9.19465,-11.662235 8.96511,-12.037537 -0.20397,-0.333479 -3.08659,-3.824159 -6.40584,-7.757067 -5.34264,-6.3303774 -6.12489,-7.0679903 -6.81853,-6.4294355 -0.43094,0.3967182 -4.30644,4.9232245 -8.61222,10.0589045 l -7.82868,9.337598 -10.30619,-10.32398 C 201.26714,10.031795 196.5269,5.3860037 196.40169,5.3860037 c -0.41706,0 -14.26275,13.8072403 -14.26275,14.2231363 0,0.369586 8.59402,8.843303 14.03608,13.8396 1.76383,1.61935 2.49046,2.881631 3.90722,6.787527 0.95723,2.639023 1.74363,5.087591 1.74755,5.441262 0.007,0.630808 -39.66688,52.764636 -40.35642,53.030736 -0.19338,0.07463 -1.59,-1.289076 -3.1036,-3.030458 z"
       id="path1484"
       transform="scale(0.26458333)" />
    <path
       style="fill:#000000;fill-opacity:1;fill-rule:nonzero;stroke-width:0.505076"
       d="m 208.90798,222.25317 c -6.52811,-4.8525 -12.18436,-9.13535 -12.56945,-9.51744 -0.3851,-0.38209 -0.99817,-2.36026 -1.36239,-4.39592 -1.07041,-5.9826 -1.6956,-5.42058 6.20828,-5.581 l 6.92366,-0.14052 13.70524,-14.9817 13.70525,-14.9817 0.33572,-10.01958 c 0.18465,-5.51076 0.47132,-13.99705 0.63703,-18.85841 l 0.30131,-8.83883 -16.70189,-14.08296 c -14.61813,-12.32595 -16.62541,-14.1888 -16.08889,-14.93127 1.79782,-2.48798 19.2679,-22.251014 19.66939,-22.251014 0.26019,0 3.12475,1.890289 6.3657,4.200643 3.24094,2.310354 6.60975,4.696971 7.48623,5.303594 l 1.59361,1.102951 7.20037,-8.207783 c 3.9602,-4.51428 7.73195,-8.770827 8.38165,-9.458994 l 1.18128,-1.251211 v 77.896534 77.89654 l -17.5514,-0.0396 -17.5514,-0.0396 z"
       id="path1486"
       transform="scale(0.26458333)" />
    <path
       style="fill:#000000;fill-opacity:1;fill-rule:nonzero;stroke-width:0.505076"
       d="m 157.93518,216.45587 c -5.89096,-8.08457 -10.60276,-14.80729 -10.47068,-14.93938 0.13208,-0.13208 3.63423,-0.0786 7.78254,0.11887 l 7.54238,0.35901 2.16005,6.37288 c 1.50162,4.43031 2.56469,6.74229 3.48757,7.58482 0.73014,0.66658 4.80151,4.35995 9.04747,8.20749 l 7.71995,6.99554 h -8.27922 -8.27922 z"
       id="path1488"
       transform="scale(0.26458333)" />
    <path
       style="fill:#000000;fill-opacity:1;fill-rule:nonzero;stroke-width:0.505076"
       d="m 67.86398,229.47898 c 1.04252,-0.92186 9.159697,-7.91085 18.038171,-15.53109 l 16.142679,-13.85498 7.13584,-0.1719 7.13584,-0.1719 -1.40898,7.74804 c -0.77494,4.26143 -1.42023,8.24249 -1.43397,8.84681 -0.0199,0.8747 1.28822,1.90083 6.41473,5.03194 3.54185,2.16325 8.58815,5.24853 11.21401,6.85619 l 4.77429,2.92301 H 100.92254 65.968489 Z"
       id="path1490"
       transform="scale(0.26458333)" />
    <path
       style="fill:#000000;fill-opacity:1;fill-rule:nonzero;stroke-width:0.505076"
       d="m 3.3586864,212.59354 0.016745,-18.56155 8.4432826,8.73216 c 4.643805,4.80269 8.603209,8.72335 8.798675,8.71257 0.287521,-0.0159 13.47534,-10.73 26.267797,-21.34068 l 2.379529,-1.9737 2.797503,5.57807 c 1.538626,3.06793 2.784467,5.75231 2.768527,5.96528 -0.01594,0.21297 -2.737057,2.43278 -6.046937,4.9329 -3.30988,2.50013 -6.024253,4.72261 -6.031941,4.93885 -0.0077,0.21624 4.67856,5.15968 10.413884,10.98541 l 10.42786,10.59225 H 33.467775 3.341941 Z"
       id="path1492"
       transform="scale(0.26458333)" />
    <path
       style="fill:#000000;fill-opacity:1;fill-rule:nonzero;stroke-width:0.505076"
       d="M 3.341941,174.81663 V 162.8407 l 1.8940361,0.28266 c 1.0417198,0.15547 5.7578699,0.78578 10.4803329,1.40069 8.178797,1.06496 8.664201,1.19115 10.227794,2.65888 0.902824,0.84748 1.641498,1.69615 1.641498,1.88593 0,0.31432 -22.87342,17.16381 -23.8316351,17.55535 -0.2266142,0.0926 -0.4120259,-5.22082 -0.4120259,-11.80758 z"
       id="path1494"
       transform="scale(0.26458333)" />
    <path
       style="fill:#000000;fill-opacity:1;fill-rule:nonzero;stroke-width:0.505076"
       d="m 10.791816,133.80273 -7.449875,-0.15436 v -13.23072 c 0,-12.93812 0.020866,-13.20869 0.9435388,-12.23459 0.5189463,0.54786 5.3290853,5.88273 10.6891982,11.85526 5.360112,5.97252 10.434929,11.59781 11.277371,12.50064 l 1.531712,1.64149 -4.771035,-0.11168 c -2.624069,-0.0614 -8.123479,-0.18115 -12.22091,-0.26604 z"
       id="path1496"
       transform="scale(0.26458333)" />
    <path
       style="fill:#000000;fill-opacity:1;fill-rule:nonzero;stroke-width:0.505076"
       d="m 175.57295,172.39271 c 0,-0.0954 4.22448,-4.41151 9.38773,-9.59125 5.16325,-5.17975 9.31119,-9.63353 9.21764,-9.8973 -0.31363,-0.88431 -22.64495,-25.79477 -23.12407,-25.79477 -0.91375,0 -16.18943,21.25919 -16.18943,22.53087 0,0.80996 10.96468,14.58097 15.29746,19.21271 l 3.00111,3.2082 h -18.76421 -18.76421 l 3.42774,-3.12693 c 4.68226,-4.27136 14.09389,-14.04733 14.83626,-15.4106 0.65875,-1.2097 -0.42584,-2.55466 -16.13673,-20.0107 -6.04308,-6.71434 -6.31705,-6.94583 -7.17308,-6.06092 -1.21044,1.25128 -14.02699,19.27068 -14.90786,20.95968 -0.68971,1.32247 -0.57093,1.51929 5.47593,9.07376 3.39952,4.24709 7.51388,9.15042 9.14304,10.8963 l 2.96209,3.17434 H 116.8711 c -9.0152,0 -21.557603,-0.15036 -27.872015,-0.33412 L 77.518338,170.88785 67.45172,161.82853 c -5.561012,-5.00456 -10.056833,-9.43276 -10.044757,-9.89367 0.01202,-0.45889 0.328517,-3.40798 0.703318,-6.55352 0.535452,-4.49381 0.936574,-6.07317 1.872175,-7.37142 0.654895,-0.90874 3.236277,-4.42269 5.736405,-7.80878 l 4.545686,-6.15654 13.131983,0.28697 c 34.84997,0.76158 59.26299,1.26161 76.77159,1.57246 l 19.1929,0.34075 12.87945,9.84146 c 7.08369,5.41281 13.08801,10.03204 13.34293,10.26496 0.52496,0.47966 -1.60413,13.97717 -2.35985,14.96038 -0.25983,0.33805 -3.87013,3.00864 -8.02289,5.93465 l -7.55047,5.32002 h -6.03862 c -3.32124,0 -6.03862,-0.0781 -6.03862,-0.17354 z m -74.14107,-9.54918 c 11.54392,-13.17783 11.26229,-12.7945 10.37984,-14.12814 -2.07111,-3.13006 -17.842885,-19.74864 -18.511376,-19.50527 -0.618609,0.22521 -4.89944,5.47769 -11.755235,14.4234 l -5.527933,7.21307 8.992978,9.83719 c 4.946138,5.41046 9.146282,9.84282 9.333654,9.84968 0.187372,0.007 3.377005,-3.4536 7.088072,-7.68993 z"
       id="path1498"
       transform="scale(0.26458333)" />
  </g>
  <g
     inkscape:label="Layer 1"
     inkscape:groupmode="layer"
     id="layer1"
     transform="translate(-1.4545078,-2.1680705)">
    <path
       style="fill:none;stroke:#000000;stroke-width:0.264583px;stroke-linecap:butt;stroke-linejoin:miter;stroke-opacity:1"
       d="m 44.213302,28.675136 10.95363,-14.303782 -1.03639,-2.900156 -4.2753,-4.0854818 3.60226,-3.554439 5.43745,5.563383 4.54842,-5.365422 3.18683,3.769127 -5.09121,6.2475188 7.49094,7.8392 -4.34218,4.952354 -4.12713,-2.913028 -5.63396,6.484331 8.97727,7.60525 -0.33302,9.724972 -7.17003,7.849235 h -3.85972 l 0.51674,2.921774 6.47816,4.79624 -8.76677,0.009 -4.89394,-4.42733 -1.20656,-3.486572 -4.766675,-0.175353 5.810425,7.964005 -7.724412,0.2441 -6.352961,-3.8773 0.831715,-4.743293 -4.128672,0.11394 -9.774491,8.393543 -5.572567,-5.69202 3.315356,-2.556989 -1.766874,-3.442552 -7.6591162,6.304641 -5.22646,-5.513899 7.540215,-5.497703 -1.057995,-1.082921 -5.630482,-0.756089 -0.168952,-7.391598 6.934449,0.188986 -6.81963,-7.558601 3.936222,-5.162335 7.6338192,8.336999 2.421908,-2.253623 -6.5422382,-8.122128 4.6481002,-4.45806 12.227946,12.842007 8.790762,-0.658344 V 27.378358 L 29.11246,27.567347 23.516501,22.055524 35.489077,21.678863 37.664068,19.848017 35.86801,18.050071 H 20.944814 L 14.722222,12.964348 37.084046,12.002796 33.971958,9.1248122 10.124994,9.2345562 2.3102708,2.3021852 38.819278,2.4918882 48.226752,11.830513 v 5.543357 l -6.218334,8.905718 2.869804,3.259146 h 0.13086 z"
       id="path326"
       inkscape:export-xdpi="96"
       inkscape:export-ydpi="96" />
    <path
       style="fill:none;stroke:#000000;stroke-width:0.264583px;stroke-linecap:butt;stroke-linejoin:miter;stroke-opacity:1"
       d="m 16.824601,38.987374 3.126309,-4.183136 29.084772,0.588118 7.17276,5.505157 -0.73205,4.102761 -4.24215,2.994697 -29.316145,-0.358 -5.514914,-4.964004 z"
       id="path328"
       inkscape:export-xdpi="96"
       inkscape:export-ydpi="96" />
    <path
       style="fill:#554400;stroke-width:0.188988"
       d="m 35.110651,61.397543 c -1.59457,-0.984568 -2.967445,-1.863201 -3.050831,-1.952514 -0.08339,-0.08931 0.0057,-1.012836 0.198009,-2.05227 0.556564,-3.008492 0.73439,-2.740329 -1.817198,-2.740329 h -2.183075 l -4.856657,4.184764 -4.856657,4.184764 -2.502638,-2.625612 c -1.37645,-1.444088 -2.503324,-2.678768 -2.504165,-2.743739 -7.94e-4,-0.06497 0.678828,-0.644446 1.510374,-1.287725 0.831548,-0.643279 1.511906,-1.208241 1.511906,-1.255472 0,-0.04723 -0.430305,-0.943353 -0.956234,-1.991389 -0.874207,-1.742059 -0.983636,-1.881793 -1.27567,-1.628936 -1.445,1.251143 -7.3108048,5.998168 -7.4118201,5.998168 -0.07062,0 -1.1986127,-1.13429 -2.5066492,-2.520643 L 2.0310935,52.445966 5.7913676,49.72219 9.5516418,46.998413 8.8506944,46.298132 C 8.1566235,45.604717 8.123802,45.594483 5.5039163,45.254396 L 2.858083,44.910943 2.741042,43.497832 C 2.676671,42.720621 2.6127905,41.149232 2.5990851,40.005854 l -0.024924,-2.078869 3.4964952,0.05532 c 1.9230737,0.03042 3.4964978,0.0011 3.4964978,-0.06518 0,-0.111313 -4.4069317,-5.04137 -6.0851044,-6.807438 L 2.7506781,30.340005 4.5467279,27.991381 c 0.9878298,-1.291743 1.8286042,-2.348621 1.868387,-2.348621 0.039785,0 1.7077981,1.785937 3.7066931,3.96875 1.998898,2.182812 3.733628,3.989035 3.854958,4.013827 0.121328,0.02479 0.810107,-0.492083 1.530623,-1.148609 l 1.310026,-1.193689 -3.117937,-3.859575 c -1.714866,-2.122766 -3.179673,-3.963567 -3.255132,-4.09067 -0.08726,-0.146984 0.595233,-0.938006 1.875179,-2.173362 1.106802,-1.068247 2.076286,-1.966576 2.154404,-1.996286 0.07812,-0.02971 2.549639,2.479106 5.492271,5.575149 2.94263,3.09604 5.654921,5.941586 6.027309,6.32343 l 0.677068,0.694264 4.535713,-0.357312 c 2.494642,-0.196519 4.556977,-0.360111 4.582961,-0.363534 0.02598,-0.0034 0.04725,-0.856671 0.04725,-1.896105 v -1.889882 h -3.357266 -3.357264 l -2.431034,-2.436442 c -1.964798,-1.969167 -2.362969,-2.455524 -2.076143,-2.535952 0.195192,-0.05473 2.735692,-0.157408 5.645558,-0.228176 l 5.290664,-0.128667 1.182176,-0.959154 c 0.650198,-0.527535 1.18218,-1.010992 1.18218,-1.074352 0,-0.06336 -0.449159,-0.558776 -0.998133,-1.100928 l -0.99813,-0.985732 -7.459085,-0.0067 -7.459089,-0.0067 -2.805805,-2.302356 c -1.543193,-1.266296 -2.733818,-2.319319 -2.645834,-2.340052 0.08798,-0.02074 5.007518,-0.228148 10.932295,-0.460925 5.924778,-0.232778 10.827533,-0.473687 10.895018,-0.535348 0.06748,-0.06166 -0.635318,-0.815538 -1.561777,-1.675275 L 34.130356,8.9093008 22.179484,8.9308114 10.228613,8.952322 6.610208,5.7692576 C 4.6200863,4.0185732 3.0101126,2.5661456 3.0324884,2.5416426 c 0.022384,-0.0245 8.0561976,0.010795 17.8529346,0.07846 l 17.81225,0.1230127 4.617032,4.5243829 4.617032,4.5243838 v 2.786268 2.786268 l -3.128901,4.471202 -3.128902,4.471199 1.475256,1.682784 c 1.066376,1.216385 1.602909,1.687439 1.935837,1.699583 l 0.460581,0.0168 -0.501049,-0.522983 -0.501052,-0.522986 5.450432,-7.12071 5.450433,-7.120713 -0.549085,-1.551648 C 54.363205,11.363343 54.282703,11.254874 52.295449,9.364019 l -2.050753,-1.9512756 1.631095,-1.6116088 1.631095,-1.6116062 2.616393,2.7418612 c 1.439019,1.5080218 2.674917,2.7418585 2.746441,2.7418585 0.07153,0 1.099421,-1.1481012 2.284212,-2.5513374 1.184791,-1.4032388 2.214679,-2.55134 2.28864,-2.55134 0.07397,0 0.745649,0.7257786 1.492639,1.6128418 l 1.358162,1.6128418 -2.235504,2.7393427 c -1.229529,1.50664 -2.358549,2.94065 -2.508933,3.186686 -0.266255,0.435621 -0.178818,0.545669 3.336735,4.199528 1.985584,2.063699 3.639428,3.810389 3.675208,3.88153 0.116726,0.232087 -3.862316,4.679082 -4.075518,4.554818 -0.113387,-0.06608 -1.024109,-0.700572 -2.023832,-1.409973 -0.999723,-0.709401 -1.858677,-1.289817 -1.908781,-1.289817 -0.154,0 -5.817441,6.575295 -5.817441,6.75409 0,0.09227 2.007076,1.86245 4.460166,3.933722 l 4.460163,3.765952 -0.132871,4.726614 -0.132874,4.726615 -0.61014,0.661458 c -0.335573,0.363802 -1.952648,2.128478 -3.593494,3.921503 l -2.983359,3.260045 H 54.225664 52.24843 l 0.102373,0.519716 c 0.05631,0.285845 0.199464,1.029986 0.318129,1.653646 l 0.215755,1.13393 2.389968,1.748965 c 1.314482,0.961932 2.645103,1.958147 2.956933,2.213813 l 0.566965,0.464847 -3.915685,0.0068 -3.915683,0.0068 -2.460903,-2.22061 -2.460902,-2.220609 -0.575416,-1.721437 -0.575413,-1.721435 -1.268982,-0.119856 c -1.598104,-0.150953 -4.009308,-0.15812 -4.009308,-0.01193 0,0.06084 1.239751,1.811827 2.755001,3.891079 1.515253,2.079252 2.7193,3.816165 2.67566,3.859805 -0.04364,0.04364 -1.644833,0.12804 -3.558204,0.187553 l -3.478856,0.108204 z M 53.501039,46.711001 c 1.648632,-1.161859 2.175063,-1.636284 2.254343,-2.031624 0.479496,-2.391138 0.686792,-3.890764 0.55468,-4.012708 -0.240956,-0.222409 -6.741049,-5.192755 -6.995816,-5.349401 -0.188465,-0.11588 -23.157794,-0.686279 -27.97964,-0.69482 l -1.556213,-0.0028 -1.589034,2.126115 -1.589037,2.126118 -0.222105,1.954675 -0.222104,1.954676 1.099497,0.989031 c 0.604721,0.54397 1.864897,1.681922 2.800389,2.528784 l 1.700893,1.539753 2.551337,0.03171 c 1.403239,0.01744 6.505917,0.08821 11.339288,0.157279 4.833368,0.06906 10.343747,0.142092 12.245281,0.162287 l 3.457335,0.03672 z"
       id="path346"
       inkscape:export-xdpi="96"
       inkscape:export-ydpi="96" />
    <path
       style="fill:#000000;stroke-width:0.188988"
       d="m 24.574943,45.238243 c -1.01636,-1.110774 -2.083716,-2.274903 -2.3719,-2.586953 l -0.523973,-0.567362 2.160135,-2.834423 c 1.188074,-1.558933 2.236565,-2.834426 2.329979,-2.834426 0.218326,0 4.942618,5.114396 4.942618,5.350751 0,0.09793 -1.05501,1.373696 -2.344468,2.835032 l -2.344467,2.656975 z"
       id="path354"
       inkscape:export-xdpi="96"
       inkscape:export-ydpi="96" />
    <path
       style="fill:#000000;stroke-width:0.188988"
       d="m 34.3246,44.726885 c -1.299295,-1.608166 -2.362351,-2.95343 -2.362351,-2.989471 0,-0.149482 4.143039,-5.982684 4.240488,-5.970402 0.05843,0.0074 1.455071,1.544984 3.103642,3.416937 l 2.997403,3.403547 -0.535977,0.599059 c -1.933461,2.161024 -4.36455,4.472766 -4.699502,4.468792 -0.261692,-0.0031 -1.122606,-0.921991 -2.743703,-2.928462 z"
       id="path356"
       inkscape:export-xdpi="96"
       inkscape:export-ydpi="96" />
    <path
       style="fill:#000000;stroke-width:0.188988"
       d="m 44.799416,44.770831 c -1.299295,-1.608166 -2.362351,-2.95343 -2.362351,-2.989471 0,-0.149482 4.143039,-5.982684 4.240488,-5.970402 0.05843,0.0074 1.455071,1.544984 3.103642,3.416937 l 2.997403,3.403547 -0.535977,0.599059 c -1.933461,2.161024 -4.36455,4.472766 -4.699502,4.468792 -0.261692,-0.0031 -1.122606,-0.921991 -2.743703,-2.928462 z"
       id="path356-7"
       inkscape:export-xdpi="96"
       inkscape:export-ydpi="96" />
    <path
       style="fill:#554400;stroke-width:0.714286"
       d="m 204.32677,201.24234 c -3.52226,-4.22321 -7.48282,-9.04811 -8.80124,-10.72199 l -2.39712,-3.04342 3.8352,-5.52801 c 2.10936,-3.0404 5.63121,-7.99042 7.82634,-11.00003 l 3.99115,-5.47203 9.26368,10.37807 c 5.09502,5.70794 10.15761,11.44875 11.25019,12.75734 l 1.98652,2.37926 -8.86765,8.96469 c -5.38532,5.44425 -9.42044,8.96469 -10.2753,8.96469 -0.91622,0 -3.6434,-2.68068 -7.81177,-7.67857 z"
       id="path416"
       transform="matrix(0.26458333,0,0,0.26458333,-8.5454922,-7.8319295)" />
    <path
       style="fill:#554400;stroke-width:0.714286"
       d="m 167.61887,204.58126 c -2.06773,-2.38682 -6.09935,-7.27012 -8.95914,-10.8518 l -5.19963,-6.51214 2.34441,-3.25534 c 1.28943,-1.79045 4.68631,-6.56347 7.54862,-10.60673 2.86231,-4.04326 5.56606,-7.23502 6.00834,-7.09281 1.0952,0.35216 21.85777,23.551 21.86767,24.43361 0.0129,1.14949 -17.55653,18.22486 -18.75218,18.22486 -0.60422,0 -2.79036,-1.95284 -4.85809,-4.33965 z"
       id="path418"
       transform="matrix(0.26458333,0,0,0.26458333,-8.5454922,-7.8319295)" />
    <path
       style="fill:#82551e;fill-opacity:1;stroke-width:0.714286"
       d="m 125.19665,199.87195 c -3.89514,-4.25521 -7.81998,-8.55168 -8.72187,-9.54771 l -1.63981,-1.81096 7.86102,-10.15333 c 4.32356,-5.58433 8.10242,-10.15332 8.39747,-10.15332 1.07145,0 18.00071,18.101 18.00071,19.24661 0,0.30803 -3.13393,4.19219 -6.96428,8.63146 -3.83036,4.43927 -7.61384,8.84824 -8.40773,9.7977 l -1.44344,1.7263 z"
       id="path420"
       transform="matrix(0.26458333,0,0,0.26458333,-8.5454922,-7.8319295)" />
    <path
       style="fill:#82551e;fill-opacity:1;stroke-width:0.714286"
       d="m 167.51045,203.74234 c -9.69964,-11.25491 -13.49536,-16.26058 -12.98898,-17.12944 1.56889,-2.69194 12.47833,-17.52501 13.69662,-18.62269 1.4013,-1.26257 1.56813,-1.13513 8.49973,6.49271 9.77483,10.75668 13.80492,15.53872 13.80492,16.38072 0,1.10619 -16.98578,17.34299 -18.14299,17.34299 -0.56206,0 -2.75324,-2.00893 -4.8693,-4.46429 z"
       id="path1245"
       transform="matrix(0.26458333,0,0,0.26458333,-8.5454922,-7.8319295)" />
    <path
       style="fill:#82551e;fill-opacity:1;stroke-width:0.714286"
       d="m 207.92936,204.45663 c -5.18958,-5.38188 -13.83519,-16.0152 -13.83519,-17.01604 0,-0.77257 6.81984,-10.73676 12.54744,-18.33254 l 2.28262,-3.02714 10.79926,12.21696 c 5.93959,6.71933 10.79925,12.46372 10.79925,12.76532 0,0.90438 -17.14045,17.14344 -18.09502,17.14344 -0.48529,0 -2.50956,-1.6875 -4.49836,-3.75 z"
       id="path1247"
       transform="matrix(0.26458333,0,0,0.26458333,-8.5454922,-7.8319295)" />
    <path
       style="fill:#82551e;fill-opacity:1;stroke-width:0.714286"
       d="m 164.80846,261.04431 c -6.08929,-3.86295 -11.07075,-7.28709 -11.06992,-7.60919 7.1e-4,-0.3221 0.4501,-3.84616 0.99837,-7.83123 0.54828,-3.98509 0.79876,-7.76188 0.55663,-8.39286 -0.36875,-0.96094 -1.76684,-1.14726 -8.60885,-1.14726 h -8.1686 l -16.67525,14.36712 c -9.17138,7.90192 -17.27909,14.89299 -18.01713,15.53572 -1.27623,1.11141 -1.79174,0.69805 -10.535714,-8.44778 -5.056604,-5.28901 -9.180862,-9.78901 -9.165017,-10 0.01584,-0.211 2.576115,-2.42063 5.68949,-4.9103 l 5.660682,-4.52668 -3.525408,-7.02519 c -1.938975,-3.86386 -3.833732,-7.21575 -4.210572,-7.44865 -0.37684,-0.2329 -2.573752,1.14824 -4.882027,3.06921 -9.839475,8.18849 -23.918685,19.38655 -24.374524,19.38655 -0.459046,0 -5.254125,-4.83288 -14.173974,-14.28571 l -3.707065,-3.92857 13.877454,-10 c 7.632599,-5.5 13.883168,-10.36849 13.890152,-10.81887 0.02205,-1.42182 -4.858456,-5.16479 -7.293458,-5.59351 -1.285186,-0.22628 -5.666708,-0.86679 -9.736717,-1.42335 -4.070009,-0.55656 -7.587468,-1.19937 -7.816576,-1.42848 -0.229108,-0.22912 -0.555659,-6.03304 -0.725669,-12.89761 l -0.30911,-12.48104 h 12.947114 c 7.1681,0 12.947114,-0.28611 12.947114,-0.64098 0,-0.35254 -4.258929,-5.38068 -9.464286,-11.17364 -5.205357,-5.79295 -10.827538,-12.06207 -12.493734,-13.93139 l -3.029449,-3.39874 6.068711,-7.88767 c 3.337791,-4.33821 6.363149,-8.06963 6.723016,-8.29204 0.359868,-0.22241 6.81695,6.18818 14.349071,14.24575 7.532122,8.05758 14.117939,14.65014 14.635149,14.65014 1.047583,0 6.958088,-4.54827 9.491896,-7.30422 l 1.637517,-1.78109 -11.816089,-14.64566 c -6.498848,-8.0551 -11.816088,-15.11241 -11.816088,-15.6829 0,-1.32778 13.044647,-14.15756 14.39467,-14.15756 0.87441,0 32.584441,32.43531 42.107851,43.07095 l 3.28824,3.67227 17.42605,-1.30792 c 9.58433,-0.71935 17.58676,-1.45912 17.78319,-1.64391 0.19643,-0.1848 0.46762,-3.52417 0.60265,-7.42083 l 0.2455,-7.08485 h -12.78209 -12.7821 l -8.8297,-8.93133 c -4.85634,-4.91222 -8.67444,-9.08659 -8.48467,-9.27636 0.18977,-0.18976 9.52895,-0.60614 20.75372,-0.92526 l 20.40868,-0.58024 2.39829,-1.86657 c 1.31906,-1.02662 3.50718,-2.81032 4.86248,-3.96379 l 2.46418,-2.09721 -3.8178,-4.03676 -3.81779,-4.036763 h -28.33234 -28.33233 l -7.45691,-6.181224 c -4.1013,-3.399673 -8.631296,-7.227996 -10.066654,-8.507384 l -2.609739,-2.326161 7.252597,-0.430427 c 3.988926,-0.236735 18.984736,-0.91018 33.324026,-1.496544 33.21314,-1.358157 41.42857,-1.851943 41.42857,-2.490052 0,-0.2828 -2.7246,-3.12991 -6.05467,-6.32691 l -6.05467,-5.812727 H 116.60841 71.231982 L 58.200844,51.599485 45.169704,39.992342 66.596223,39.765073 c 11.784586,-0.124998 41.826227,-0.0052 66.759207,0.266166 l 45.33268,0.493436 17.34589,17.178319 17.34589,17.178318 v 9.895254 9.895254 l -11.78572,16.80257 c -6.48214,9.24142 -11.78571,17.15169 -11.78571,17.57838 0,1.48257 10.69268,12.56499 12.58018,13.03873 2.69847,0.67727 2.94312,-0.0462 0.77936,-2.30469 l -1.89346,-1.97634 20.40211,-26.64228 c 17.34857,-22.654803 20.33599,-26.90572 19.96033,-28.402445 -1.82769,-7.28211 -3.50224,-9.960666 -11.00744,-17.607154 l -7.54878,-7.690895 5.68528,-5.736144 5.68527,-5.736145 10,10.411109 c 5.98012,6.225964 10.3007,10.187805 10.74803,9.855611 0.41142,-0.305525 4.20473,-4.484242 8.42959,-9.28604 4.22485,-4.801798 7.95732,-8.900981 8.29438,-9.109295 0.53798,-0.332489 9.34965,9.451295 9.87043,10.959351 0.10977,0.317846 -3.51482,5.166942 -8.05463,10.775769 -4.5398,5.608828 -8.59802,10.840321 -9.01825,11.625542 -1.04576,1.954009 0.68881,4.164616 14.86111,18.939596 l 11.55923,12.05079 -2.92874,3.53011 c -1.61081,1.94156 -5.00193,5.66543 -7.53582,8.27527 l -4.60708,4.74517 -6.98486,-4.92374 c -3.84167,-2.70806 -7.31984,-4.92374 -7.72924,-4.92374 -0.78856,0 -8.45001,8.36774 -17.16703,18.7496 -3.21575,3.82993 -5.09144,6.65604 -4.84457,7.29936 0.22155,0.57737 7.7748,7.34442 16.78499,15.03789 l 16.38217,13.98813 -0.38036,16.56965 c -0.20921,9.11332 -0.6125,17.21109 -0.89622,17.99505 -0.28372,0.78397 -6.42599,7.91805 -13.64949,15.8535 l -13.13364,14.42811 -7.41851,0.0394 -7.41852,0.0393 0.41973,3.03572 c 1.37768,9.96404 0.97048,9.38759 12.7404,18.03571 l 10.69343,7.85715 -13.99275,0.19373 -13.99275,0.19374 -9.48399,-8.57313 -9.48399,-8.57314 -2.0346,-6.36646 c -1.99997,-6.25812 -2.07829,-6.37368 -4.60295,-6.79131 -4.10992,-0.67986 -17.9255,-0.50719 -17.9255,0.22403 0,0.36554 3.30543,5.26732 7.34541,10.89286 11.00619,15.32578 12.15236,17.0926 11.48315,17.70123 -0.33785,0.30725 -6.07856,0.72924 -12.75713,0.93774 l -12.14285,0.37908 z m 35.94169,-49.1669 26.01126,0.25779 6.7021,-4.75619 c 9.21326,-6.53825 9.6074,-7.04559 10.93285,-14.07272 1.99585,-10.58144 2.89313,-9.06898 -12.19187,-20.5509 l -13.26167,-10.09409 -14.38861,-0.47034 c -29.68821,-0.97047 -68.46638,-1.82787 -82.97172,-1.83456 l -15.01167,-0.007 -5.90336,7.8778 c -5.681135,7.58125 -5.928587,8.07197 -6.573415,13.03572 -1.413798,10.8831 -2.005281,9.66313 9.773275,20.1579 l 10.4216,9.28572 27.73474,0.35714 c 25.0457,0.32252 27.85448,0.47692 28.96966,1.59254 1.131,1.13145 1.34055,1.1398 2.49024,0.0994 1.11058,-1.00507 4.25437,-1.10632 27.26659,-0.87825 z"
       id="path1249"
       transform="matrix(0.26458333,0,0,0.26458333,-8.5454922,-7.8319295)" />
    <path
       style="fill:#82551e;fill-opacity:1;stroke-width:0.714286"
       d="m 216.12213,259.27694 -9.52796,-8.66124 -1.68779,-5.31168 c -2.53789,-7.98703 -2.23658,-7.81168 -13.42292,-7.81168 -6.69564,0 -9.53215,0.24392 -9.53215,0.81968 0,0.45082 4.02123,6.54044 8.93605,13.5325 4.91483,6.99205 9.10905,13.16364 9.32048,13.71463 0.44264,1.15348 -6.75995,1.92159 -18.08762,1.92891 l -6.61681,0.004 -9.09747,-5.89364 c -5.00362,-3.24151 -9.8172,-6.40325 -10.69686,-7.0261 -1.57937,-1.11828 -1.58892,-1.22607 -0.76362,-8.61156 0.45968,-4.1135 0.62699,-8.02319 0.3718,-8.68819 -0.39961,-1.04138 -1.63278,-1.20909 -8.89064,-1.20909 h -8.42668 l -17.42629,15 c -9.58447,8.25 -17.65684,15 -17.93861,15 -0.66152,0 -17.826584,-17.74581 -17.826584,-18.42971 0,-0.28457 2.408417,-2.4418 5.352037,-4.79384 2.94362,-2.35205 5.354334,-4.52394 5.357143,-4.82643 0.0054,-0.58183 -5.881215,-12.30879 -7.045887,-14.0364 -0.897287,-1.33098 -1.831595,-0.70814 -15.506895,10.33744 -5.924696,4.78539 -11.651157,9.27665 -12.725468,9.98056 l -1.953294,1.27985 -5.007045,-4.9343 c -2.753875,-2.71388 -6.573067,-6.72637 -8.487093,-8.91665 l -3.480048,-3.98235 10.783096,-7.80337 c 13.498955,-9.76875 16.675518,-12.54083 16.097314,-14.04761 -0.962455,-2.50811 -6.404716,-4.68915 -14.718718,-5.89865 -4.466314,-0.64975 -8.564528,-1.35172 -9.107142,-1.55994 -0.72878,-0.27966 -0.986571,-1.91641 -0.986571,-6.26386 0,-3.2369 -0.208846,-8.82751 -0.464102,-12.42358 l -0.464102,-6.5383 h 12.964102 c 7.938779,0 12.964102,-0.26977 12.964102,-0.69594 0,-0.77299 -4.434207,-6.0198 -16.330317,-19.32295 -4.375469,-4.893 -7.953966,-9.06007 -7.952215,-9.26016 0.0018,-0.20009 2.778394,-3.87659 6.17032,-8.16998 l 6.167138,-7.80616 14.008252,14.44549 c 7.704538,7.94503 14.50821,14.43101 15.119271,14.41331 1.44626,-0.0419 10.67687,-7.65472 10.66752,-8.79789 -0.0039,-0.48244 -4.981713,-7.11911 -11.061707,-14.74818 -6.079993,-7.62906 -11.253663,-14.49843 -11.497043,-15.26525 -0.340463,-1.07271 0.8515,-2.7034 5.168851,-7.07137 7.530386,-7.61867 7.598126,-7.64786 10.830236,-4.66627 4.093381,3.77611 30.600669,30.85672 37.033759,37.83476 l 5.75873,6.24654 17.37121,-1.40916 c 9.55417,-0.77503 17.5982,-1.65741 17.87563,-1.96083 0.27743,-0.30343 0.65768,-3.6856 0.845,-7.51596 l 0.34059,-6.96429 h -12.58976 -12.58976 l -8.82808,-8.84933 -8.82809,-8.84933 3.48167,-0.4105 c 1.9149,-0.22578 11.11278,-0.61874 20.43971,-0.87326 l 16.95806,-0.46275 5.0172,-3.9697 5.01719,-3.96971 -1.60409,-1.84342 c -0.88224,-1.01388 -2.55737,-2.88807 -3.72251,-4.164855 l -2.11843,-2.321428 h -28.36517 -28.36517 l -9.53042,-7.937337 c -5.241739,-4.365536 -9.637575,-8.222679 -9.768527,-8.571429 -0.130953,-0.348751 1.47619,-0.635304 3.571428,-0.636784 5.688229,-0.004 65.864719,-2.750397 71.845239,-3.278922 3.10978,-0.274825 5.17896,-0.780816 5.17953,-1.266591 5.3e-4,-0.444915 -2.63732,-3.300009 -5.86189,-6.344652 l -5.86285,-5.535714 H 117.06303 71.755671 L 66.33508,58.3852 C 63.353755,55.733414 57.570609,50.562076 53.483646,46.893338 l -7.430844,-6.670433 66.158318,0.241862 66.15832,0.241861 17.50522,17.494533 17.50523,17.494533 v 9.195547 9.195547 l -8.80135,12.595632 c -12.8454,18.38312 -14.77008,21.32345 -14.77008,22.56427 0,1.59297 10.58923,12.47277 12.64083,12.98768 2.49163,0.62536 2.82458,-0.19018 1.05487,-2.58384 l -1.55995,-2.10996 17.32498,-22.71316 c 18.51184,-24.269131 22.68212,-30.136535 22.68212,-31.91274 0,-2.288106 -2.82707,-8.452786 -5.20997,-11.360803 -1.35298,-1.651127 -4.80348,-5.511479 -7.6678,-8.578557 l -5.20784,-5.576508 5.26861,-5.30401 5.26861,-5.304009 10.26919,10.172209 10.2692,10.172208 5.11215,-5.714286 c 2.81168,-3.142857 6.7391,-7.438854 8.72761,-9.546659 l 3.61547,-3.832373 4.42025,5.123062 c 2.43113,2.817684 4.42024,5.409661 4.42024,5.759949 0,0.350288 -2.50501,3.787335 -5.56668,7.637882 -3.06168,3.850548 -6.97756,8.875862 -8.70196,11.167366 l -3.13529,4.166371 1.27382,2.365343 c 0.7006,1.30094 6.69737,8.104645 13.32614,15.119345 6.62878,7.0147 12.06073,12.93514 12.071,13.15654 0.0103,0.22139 -3.27596,3.8435 -7.30275,8.04912 l -7.32142,7.6466 -6.74215,-4.65627 c -3.70818,-2.56095 -7.10921,-4.65628 -7.55785,-4.65628 -1.62372,0 -19.47476,19.85894 -21.73504,24.17981 -1.14117,2.18152 -0.77624,2.56297 17.64218,18.44116 l 14.46428,12.46939 -0.0716,10.49054 c -0.0394,5.76979 -0.28045,13.56389 -0.53572,17.32022 -0.53796,7.91601 1.00589,5.53259 -15.51588,23.95366 l -10.95283,12.21191 -7.61717,0.43136 c -4.18945,0.23724 -7.71419,0.52836 -7.83276,0.64693 -0.65288,0.65288 1.76282,10.8868 2.96065,12.54259 0.77798,1.07541 5.49688,5.00886 10.48647,8.74101 4.98959,3.73214 8.67172,6.84805 8.18254,6.92425 -0.4892,0.0762 -6.40543,0.25687 -13.1472,0.40149 l -12.25775,0.26293 z m -42.52729,-46.18535 c 1.109,-0.59352 8.91282,-0.78984 27.4457,-0.69045 l 25.89608,0.13887 6.39562,-4.69426 c 9.88386,-7.25455 11.12175,-9.25393 11.95667,-19.31178 l 0.41753,-5.0298 -3.55408,-3.18448 c -1.95475,-1.75147 -7.91982,-6.49818 -13.2557,-10.54824 l -9.70162,-7.36375 -17.37186,-0.66072 c -9.55453,-0.3634 -35.05044,-0.84509 -56.65758,-1.07043 l -39.28572,-0.40971 -4.72511,6.64847 c -2.598814,3.65665 -5.267415,7.70966 -5.930224,9.00668 -1.689131,3.30537 -2.379667,13.87889 -1.066634,16.33231 0.546491,1.02113 5.212698,5.62366 10.369348,10.22785 l 9.37573,8.37126 27.05987,0.51865 c 20.13653,0.38596 27.51676,0.75899 28.8456,1.45799 0.98214,0.51663 1.8872,0.97342 2.01124,1.01509 0.12404,0.0417 0.92286,-0.29742 1.77514,-0.75355 z"
       id="path1251"
       transform="matrix(0.26458333,0,0,0.26458333,-8.5454922,-7.8319295)" />
    <path
       style="fill:#82551e;fill-opacity:1;stroke-width:0.714286"
       d=""
       id="path1253"
       transform="matrix(0.26458333,0,0,0.26458333,-8.5454922,-7.8319295)" />
    <path
       style="fill:#ffffff;fill-opacity:1;fill-rule:nonzero;stroke-width:0.505076"
       d="m 128.60086,224.01845 c -5.13915,-3.34413 -10.04435,-6.61175 -10.90043,-7.26136 l -1.55652,-1.18113 0.6476,-4.96361 c 0.94816,-7.26725 0.99603,-11.28333 0.14096,-11.82473 -0.38829,-0.24586 -4.29244,-0.45049 -8.67588,-0.45475 l -7.9699,-0.008 -17.270492,14.89975 c -9.498773,8.19486 -17.627687,14.89975 -18.064255,14.89975 -0.686636,0 -7.329061,-6.50461 -15.900599,-15.57071 l -2.525382,-2.67108 1.785972,-1.61198 c 0.982284,-0.88659 3.539354,-3.0355 5.682374,-4.77538 l 3.896406,-3.16339 -3.24063,-6.43305 c -1.782349,-3.53818 -3.570389,-6.87116 -3.97342,-7.40662 -0.722342,-0.95971 -0.757521,-0.95899 -2.468657,0.0506 -0.95473,0.56331 -6.953234,5.22179 -13.330008,10.35219 -6.376774,5.1304 -12.252774,9.75956 -13.057776,10.28702 l -1.463641,0.95901 -8.490575,-8.8224 c -4.6698164,-4.85232 -8.4981106,-8.94567 -8.5073206,-9.09633 -0.00921,-0.15066 4.6118302,-3.62785 10.2689776,-7.7271 10.885592,-7.88785 16.988396,-12.70435 16.988396,-13.40771 0,-1.0474 -2.266137,-3.13297 -4.684047,-4.31081 -1.863292,-0.90767 -5.077611,-1.66581 -10.92972,-2.5779 C 10.442704,161.48808 6.5379566,160.799 6.3250758,160.66743 5.7577359,160.31707 5.4365961,156.33972 5.093817,145.4184 l -0.3051596,-9.72272 h 7.5318296 c 8.995455,0 18.295573,-0.51776 18.295573,-1.01855 0,-0.46208 -7.35206,-9.02603 -17.069199,-19.88283 l -7.631912,-8.52701 4.648142,-6.07011 C 13.11957,96.85862 16.006729,93.231268 16.979,92.136399 l 1.767767,-1.990667 13.353757,13.734538 c 7.344567,7.55399 13.882076,14.0807 14.527799,14.5038 1.086568,0.71194 1.316954,0.67468 3.092164,-0.50009 2.459594,-1.62769 6.583782,-5.19572 7.815431,-6.76151 1.133896,-1.44152 2.009178,-0.1015 -9.517002,-14.570199 C 43.814274,91.274224 39.179704,85.316647 37.719872,83.313207 l -2.65424,-3.64261 1.013198,-1.422906 c 0.557259,-0.782601 3.65393,-3.981087 6.881491,-7.107757 l 5.868294,-5.684851 2.448087,2.064262 c 3.311197,2.792042 31.245253,31.57446 40.524813,41.755555 l 2.849145,3.12595 12.80822,-0.98484 c 14.67963,-1.12874 21.462,-1.81031 22.13142,-2.22403 0.59974,-0.37066 0.9608,-3.30646 1.16627,-9.482982 l 0.16382,-4.924494 -12.65025,0.01005 -12.65025,0.01009 -8.829414,-8.97517 -8.82941,-8.975175 3.526109,-0.350694 C 93.426537,76.310721 102.70239,75.9231 112.10018,75.642222 l 17.0869,-0.510687 4.75765,-3.82665 c 2.61671,-2.104658 4.75765,-3.959773 4.75765,-4.122473 0,-0.1627 -1.61507,-2.087379 -3.58904,-4.277067 l -3.58905,-3.981253 H 103.074 74.623719 l -9.357235,-7.845055 c -5.146475,-4.31478 -9.486049,-8.053487 -9.643497,-8.308239 -0.486631,-0.787386 2.097653,-0.963658 33.58192,-2.2906 41.643243,-1.755104 46.972093,-2.121427 46.972093,-3.229023 0,-0.193401 -2.72628,-3.044338 -6.0584,-6.335415 l -6.05839,-5.983776 -12.92028,0.361453 c -7.10616,0.1988 -27.547319,0.197993 -45.424797,-0.0018 L 33.210625,24.928393 22.443162,15.366411 C 16.521058,10.107321 10.880204,5.0036821 9.9079326,4.0249903 L 8.1401656,2.2455506 74.504314,2.5024258 140.86846,2.7593009 158.22071,20.106079 175.57295,37.452857 v 9.512845 9.512843 l -4.46404,6.399806 C 160.99038,77.384637 153.98507,87.572914 152.88959,89.37591 l -1.16354,1.915007 1.37346,1.981889 c 1.91255,2.759822 10.05129,10.513894 11.68902,11.136554 2.29269,0.87168 2.61501,-0.2251 0.74865,-2.54754 l -1.63322,-2.032326 16.25896,-21.265353 c 19.71532,-25.785962 23.6943,-31.38144 23.6943,-33.320272 0,-2.344727 -1.99625,-7.056079 -4.47584,-10.563441 -1.27654,-1.805648 -4.85553,-5.896766 -7.95333,-9.091373 l -5.63236,-5.808378 5.18039,-5.429569 c 2.84922,-2.986264 5.35378,-5.4295704 5.56569,-5.4295704 0.21192,0 4.76557,4.4525754 10.11923,9.8946114 5.56899,5.660926 10.04778,9.821062 10.46743,9.722718 0.40344,-0.09454 4.30636,-4.149369 8.67317,-9.010728 4.36681,-4.861359 8.11338,-8.903083 8.32572,-8.98161 0.4295,-0.158845 6.12567,5.74402 8.32358,8.62563 l 1.41111,1.850059 -2.30518,3.167302 c -1.26785,1.742016 -5.17538,6.787316 -8.68341,11.211778 -5.70986,7.201511 -6.34671,8.202029 -6.07752,9.548019 0.38674,1.933697 2.1876,4.100625 12.10798,14.569246 4.47555,4.722883 9.46805,10.048579 11.09444,11.834882 l 2.95708,3.247817 -2.44866,2.894284 c -3.46046,4.090199 -11.86808,12.743272 -12.38181,12.743272 -0.23649,0 -3.42091,-2.045559 -7.07649,-4.545687 -3.65559,-2.500127 -6.92187,-4.545686 -7.25839,-4.545686 -1.43023,0 -19.76272,20.496225 -21.72289,24.286775 l -0.82605,1.59741 3.45463,3.35766 c 1.90005,1.84671 9.13674,8.21388 16.08154,14.14927 6.9448,5.93538 12.88592,11.04431 13.20249,11.35317 0.42436,0.41402 0.46354,4.54261 0.14913,15.71385 -0.23455,8.33376 -0.565,16.12284 -0.73433,17.30906 -0.35848,2.51123 -1.63045,4.09281 -16.84569,20.9461 l -9.91374,10.98105 -7.16753,0.005 c -4.28645,0.003 -7.29454,0.20988 -7.4835,0.51563 -0.44138,0.71417 0.70523,7.90011 1.65055,10.34424 0.43055,1.11317 1.1453,2.44901 1.58834,2.96851 0.44305,0.51951 4.9427,4.06799 9.99924,7.8855 l 9.19371,6.94094 -3.08061,0.32199 c -1.69434,0.17691 -7.71672,0.32181 -13.38306,0.32181 h -10.30245 l -9.44771,-8.56228 -9.4477,-8.56228 -1.62689,-5.25332 c -2.30801,-7.45271 -2.47238,-7.60599 -8.55593,-7.97826 -6.7072,-0.41044 -14.31338,0.0182 -14.31338,0.80667 0,0.33369 3.88588,6.15287 8.63529,12.93151 9.06852,12.94316 10.29839,14.89116 9.65326,15.28988 -0.38417,0.23742 -6.49193,0.58176 -18.66736,1.0524 l -5.93464,0.22941 z m 34.40503,-49.54172 26.07128,0.14271 6.00107,-4.33135 c 6.8994,-4.97973 10.04167,-8.11248 10.79284,-10.76013 1.05641,-3.72356 2.10138,-10.90174 1.81176,-12.44555 -0.41654,-2.22034 -3.34446,-4.88438 -15.72077,-14.30392 l -10.63246,-8.09229 -18.15689,-0.57115 c -31.88161,-1.00287 -58.5668,-1.53926 -76.882729,-1.54539 l -17.814661,-0.006 -4.790179,6.43972 c -2.634594,3.54185 -5.344551,7.57615 -6.02212,8.96511 -1.544266,3.16561 -2.576889,11.15681 -1.856176,14.36447 0.590333,2.62738 1.40193,3.50908 12.17654,13.22834 l 8.325456,7.50999 4.301451,0.0182 c 2.365803,0.01 14.600669,0.22259 27.188588,0.47239 21.26773,0.42204 23.01885,0.52427 24.74874,1.44477 1.74686,0.92954 1.93944,0.93933 3.12429,0.15896 1.13861,-0.74992 3.82477,-0.81762 27.33397,-0.68893 z"
       id="path1394"
       transform="matrix(0.26458333,0,0,0.26458333,1.4545078,2.1680705)" />
    <path
       style="fill:#ffffff;fill-opacity:1;fill-rule:nonzero;stroke-width:0.505076"
       d="m 86.145904,160.28957 c -4.567867,-4.98661 -8.371208,-9.23529 -8.451869,-9.44151 -0.145784,-0.37272 11.975134,-16.15437 14.454935,-18.82058 l 1.297804,-1.39536 2.22808,2.15297 c 3.349848,3.23693 13.638146,14.41796 14.556596,15.8197 0.89146,1.36054 0.86714,1.39404 -11.188103,15.4116 l -4.592229,5.33974 z"
       id="path1396"
       transform="matrix(0.26458333,0,0,0.26458333,1.4545078,2.1680705)" />
    <path
       style="fill:#ffffff;fill-opacity:1;fill-rule:nonzero;stroke-width:0.505076"
       d="m 131.66473,167.64151 c -3.02214,-3.14413 -10.9313,-12.67688 -13.12712,-15.82185 -1.52396,-2.1827 -1.65594,-2.61447 -1.11063,-3.63338 0.95908,-1.79207 12.99009,-17.86069 13.70238,-18.3009 0.41743,-0.25799 2.01217,1.05045 4.68762,3.84607 6.01346,6.28355 15.53615,17.20142 16.15976,18.52734 0.49144,1.04489 0.20211,1.50749 -2.95553,4.7255 -5.02277,5.1188 -13.83201,13.05658 -14.49002,13.05658 -0.30811,0 -1.59802,-1.07971 -2.86646,-2.39936 z"
       id="path1398"
       transform="matrix(0.26458333,0,0,0.26458333,1.4545078,2.1680705)" />
    <path
       style="fill:#ffffff;fill-opacity:1;fill-rule:nonzero;stroke-width:0.505076;filter:url(#filter1438)"
       d="m 169.85708,165.92248 c -3.75107,-3.91689 -12.03405,-13.88728 -12.99581,-15.64335 -0.33803,-0.6172 0.53731,-2.26698 3.52144,-6.63695 6.47689,-9.48478 10.75234,-15.11497 11.14289,-14.67371 7.57988,8.56407 19.49603,22.36739 20.08393,23.26463 0.77121,1.17703 0.70514,1.29364 -2.69851,4.76249 -5.11403,5.212 -13.82639,13.04495 -14.51222,13.04739 -0.32649,0.001 -2.37026,-1.85307 -4.54172,-4.1205 z"
       id="path1400"
       transform="matrix(0.26458333,0,0,0.26458333,1.4545078,2.1680705)" />
  </g>
</svg>
